<?xml version="1.0" encoding="UTF-8" standalone="no"?>
<svg
   version="1.2"
   viewBox="0 0 736 736"
   width="736"
   height="736"
   id="svg1"
   sodipodi:docname="hornet-icon.svg"
   xmlns:inkscape="http://www.inkscape.org/namespaces/inkscape"
   xmlns:sodipodi="http://sodipodi.sourceforge.net/DTD/sodipodi-0.dtd"
   xmlns="http://www.w3.org/2000/svg"
   xmlns:svg="http://www.w3.org/2000/svg">
  <sodipodi:namedview
     id="namedview1"
     pagecolor="#ffffff"
     bordercolor="#000000"
     borderopacity="0.25"
     inkscape:showpageshadow="2"
     inkscape:pageopacity="0.0"
     inkscape:pagecheckerboard="0"
     inkscape:deskcolor="#d1d1d1" />
  <title
     id="title1">hornet-icon</title>
  <defs
     id="defs1" />
  <style
     id="style1" />
  <path
     style="fill:#ffffff"
     d="M 356,650.93244 C 346.83947,648.88593 328.79935,640.633 314.14999,631.78705 293.82477,619.51376 271.57727,600.10458 256.50919,581.5 c -32.40153,-40.00621 -52.05234,-89.67959 -60.13128,-152 -2.25235,-17.3745 -2.56367,-68.6933 -0.52171,-86 10.18031,-86.28338 39.0184,-165.74725 85.69842,-236.1435 12.87284,-19.413007 19.83612,-25.136135 29.28686,-24.0709 6.12535,0.690415 9.63881,4.449579 11.69333,12.511073 1.86037,7.299687 1.09319,14.783967 -2.99352,29.203327 -11.85199,41.81798 -16.69862,75.68309 -16.67301,116.5 0.0208,33.18074 3.386,57.79718 11.14838,81.55099 8.4237,25.7775 21.88371,44.83454 36.88494,52.22266 8.77116,4.3198 19.68812,4.99137 28.34142,1.74345 25.38044,-9.52626 43.19567,-43.45223 50.42057,-96.0171 2.12029,-15.42617 2.39782,-61.5413 0.47545,-79 -2.67991,-24.33843 -6.81808,-46.97146 -12.15871,-66.5 -7.46385,-27.29228 -8.38052,-37.252778 -4.17431,-45.357939 4.98332,-9.602629 17.30814,-9.166137 26.88829,0.952267 5.64074,5.957656 6.75403,7.485656 15.96043,21.905672 36.47151,57.1255 61.83853,119.54227 74.78009,184 4.49848,22.40549 6.26374,35.0713 8.0836,58 1.82847,23.0372 1.83732,38.69429 0.0342,60.5 -5.43864,65.77157 -25.42799,120.39532 -60.20347,164.51456 -14.57104,18.48611 -38.53419,39.57596 -58.38403,51.3835 -17.53938,10.43317 -30.84441,16.69466 -40.67246,19.14087 -11.5175,2.86673 -13.10691,2.89248 -24.29268,0.39351 z m 23.36903,-7.89894 c 12.83382,-3.28234 38.94052,-17.61627 57.0976,-31.34954 9.66691,-7.31166 30.04297,-27.42405 37.8841,-37.39389 C 528.93298,504.8899 546.37318,402.01733 522.4671,290.47133 509.4183,229.58549 482.05627,164.96292 446.42255,110.87231 434.9683,93.485187 427.97511,87.820613 422.44084,91.446804 c -4.89365,3.206442 -4.55764,16.726116 0.88452,35.589316 10.5846,36.68759 15.78332,73.80088 15.82364,112.96388 0.0502,48.71955 -7.74607,85.60754 -23.98808,113.5 -6.39756,10.98653 -19.45628,24.10654 -28.28301,28.41573 -36.36782,17.75468 -71.28047,-13.44485 -85.30566,-76.23301 -7.63738,-34.1911 -8.53487,-78.36834 -2.4619,-121.18272 2.62341,-18.49508 5.11404,-30.73794 10.07003,-49.5 8.54713,-32.35717 8.9371,-39.25602 2.45893,-43.500678 -5.38135,-3.525996 -12.89895,2.973584 -24.97772,21.595278 -18.18307,28.03262 -38.11694,66.68889 -49.97118,96.9054 -45.48317,115.93681 -47.03257,232.39363 -4.25078,319.5 23.90225,48.66647 56.00314,81.62519 101.9662,104.69105 21.28748,10.6828 30.60384,12.51495 44.9632,8.84245 z M 316.90199,608.16008 C 301.07504,601.7873 283.90297,583.87782 272.64252,562 c -8.51565,-16.54497 -13.55532,-35.11023 -11.52601,-42.45978 1.9415,-7.03153 12.06884,-7.03857 26.07009,-0.0181 25.67674,12.87473 45.86632,36.37634 53.30667,62.05145 3.8349,13.23341 3.07317,19.87419 -2.91309,25.39651 -3.61227,3.33232 -13.88894,3.92374 -20.67819,1.19002 z M 400,606.82707 c -7.11833,-4.81389 -8.59847,-12.55222 -4.94388,-25.84717 4.35961,-15.85974 14.42073,-31.73229 28.33213,-44.69711 19.79474,-18.44785 42.78803,-27.96365 50.04182,-20.70986 4.08406,4.08405 -0.0695,24.90424 -8.36439,41.92707 -13.76606,28.25094 -37.12426,50.01763 -54.9897,51.24297 -5.70137,0.39104 -7.04148,0.13623 -10.07598,-1.9159 z"
     id="path1" />
</svg>
